<svg width="1105" height="1015" viewBox="0 0 1105 1015" fill="none" xmlns="http://www.w3.org/2000/svg">
<path d="M549.632 907.292L535.415 920.028L529.345 917.807L520.756 911.439L514.98 899.739L514.536 879.599L517.794 850.573L521.2 823.028L526.828 800.074L533.788 780.97L539.563 767.493L546.968 757.275L557.927 747.649L572.144 741.133L585.62 736.986L599.244 736.838L612.425 742.17L629.011 750.167L644.561 760.977L659.074 770.307L670.032 770.751L681.435 767.049L693.135 760.829L698.91 745.28L699.947 727.657L695.652 710.034L685.73 694.928L674.475 684.414L662.776 679.379L653.298 678.046L627.974 679.231L610.351 678.934L598.06 675.824L594.802 669.16L593.173 659.831L596.283 652.278L603.243 645.318L614.794 641.319L625.161 640.579L638.045 639.246L646.486 634.655L654.187 628.731L662.48 620.142L666.922 616.44L675.216 614.218L689.432 612.145L696.541 608.887L698.614 604L697.578 594.818L691.654 582.527L678.918 568.162L665.738 556.314L654.779 550.094L646.338 548.762L638.193 548.91L622.495 557.055L603.539 569.791L565.48 587.414L508.908 618.069L476.476 634.063L461.519 639.69L452.634 640.579L447.154 638.061L436.936 628.879L424.052 634.803L405.392 642.06L383.919 651.834L365.259 658.942L354.152 660.719L344.823 660.127L338.751 655.24L331.939 648.427L329.569 641.763L319.499 641.023L313.131 638.209L308.096 633.174L292.25 638.061L277.293 643.392L253.154 649.908L229.607 654.795L209.911 657.313L190.067 657.461L168.889 657.017L157.486 654.795L151.563 650.649L146.972 642.504L141.937 630.36L134.384 611.997L128.757 595.559L128.46 581.194L132.311 562.978L137.05 545.504L143.121 526.548L145.639 512.035L146.083 486.267L145.491 463.164L141.641 449.688L140.16 437.545L141.789 412.517L142.973 388.378L144.602 359.648L142.233 345.283L138.383 335.361L121.056 334.176L115.28 331.363L113.059 322.773L116.168 309.297L119.87 298.931L127.866 288.564L134.235 283.677L135.567 279.531H140.899L141.639 282.344H146.231L150.377 276.865L154.227 271.237L159.262 257.909L159.854 243.989L182.512 243.692L185.178 239.546L198.951 240.286L202.358 243.989L200.728 249.912L202.21 256.28L207.986 257.021L218.795 257.465L230.198 255.984L235.235 251.985L237.604 246.358L238.195 239.398L240.713 235.547L248.267 234.066L262.334 235.843L280.846 236.732L301.728 233.03L320.387 228.587L326.161 231.993L332.086 233.622L341.861 233.77L351.486 231.549L357.261 227.698L362.593 229.92H370.886L376.069 224.588L378.736 215.259L380.363 190.527L381.323 166.921L396.549 169.108L411.137 170.47L432.434 169.886L449.16 168.719L465.262 168.762L464.776 194.674L466.997 206.077L472.181 216.295L479.882 224.44L489.656 229.327L508.907 229.771L534.231 228.587L544.005 236.88L558.518 246.061L568.44 249.764L583.842 250.652L594.06 247.986L614.941 247.691L624.419 250.06L635.378 252.43L640.265 250.357L646.929 250.06L651.076 252.282L655.074 252.43L667.662 248.727L688.189 275.848L686.025 290.045L686.224 298.767L693.604 305.867L719.824 312.039L727.491 311.815L733.859 312.999L737.117 317.294L737.71 322.329L753.407 327.809L765.106 330.918L772.659 335.361L778.583 343.061L787.024 356.538L793.688 365.572L803.61 375.345L812.644 382.602L822.862 393.561L836.783 410.443L852.629 427.77L867.586 443.468L882.84 461.98L896.76 481.527L910.977 501.371L923.713 522.993L933.043 539.283L942.521 548.91L954.812 558.091L963.698 568.753L970.362 584.452L978.507 595.114L987.689 608.442L993.908 626.805L1001.76 645.317L1013.01 666.495L1025.6 684.857L1037.6 701.444L1048.7 716.549L1041.3 721.88L1030.49 729.433L1015.38 743.058L1003.68 755.646L993.168 765.568L982.357 772.973L956.885 783.19L931.266 791.335L914.531 796.519L899.426 799.037L881.507 805.997L860.33 815.179L835.746 828.359L809.682 843.316L778.731 860.939L739.635 884.634L695.651 909.958L672.549 924.767L667.958 919.288L661.738 910.402L650.928 901.072L641.005 895.297L630.195 892.631L617.459 890.706L607.981 889.817L594.208 892.779L583.99 894.704L572.143 895.592L561.48 899.739L549.632 907.292Z" fill="#124138"/>
<path d="M393.226 143.313L392.083 141.476L372.387 141.878L370.641 139.731L369.969 136.873L370.387 134.422L371.734 132.839L375.6 129.141L377.669 123.06L383.998 122.448L389.02 121.631L392.828 122.334L392.66 117.039L393.501 113.762L394.206 110.973L403.149 107.216L412.173 108.727L418.176 112.484L426.914 121.589L428.997 134.615L427.608 143.476L422.79 149.806L415.236 152.541L404.945 153.44L394.655 151.153L393.267 147.886L393.226 143.313Z" fill="#124138"/>
<path d="M515.362 96.8049L514.94 123.553L491.273 128.569L466.66 126.683L453.858 122.217L433.413 116.957L416.442 103.063L403.143 94.1308L393.08 78.4127L400.682 63.7385L403.841 52.3653L403.526 39.0967L415.215 42.045L425.009 42.783L428.167 47.5212L428.168 52.7871L434.592 53.6294L437.857 56.1567L437.436 62.7913L444.913 66.0552L436.277 79.8505L457.337 87.5379L474.398 78.3762L481.77 77.5341L478.189 86.8011L515.362 96.8049Z" fill="#2A7F2F"/>
<path d="M651.801 524.603L642.408 530.728L637.916 531.137L632.812 529.095L624.237 524.195L611.783 513.375L601.575 505.004L596.062 497.041L593.408 488.262L589.733 481.933L584.629 476.829L574.421 472.95L564.621 471.929L554.004 468.867L546.45 463.967L539.713 453.35L537.059 439.467L534.813 427.83L527.667 411.088L521.544 399.655L527.872 394.755L536.039 388.222L551.76 377.401L565.235 368.419L597.492 410.476L609.129 424.767L622.4 439.059L633.833 447.022L649.146 457.434L656.292 464.172L659.354 473.155L657.108 479.279L650.371 482.954L647.717 486.425L649.35 491.529L654.046 495.816L664.05 503.575L666.091 508.883L662.825 514.396L658.537 519.5L651.801 524.603Z" fill="#CB8374"/>
<path d="M711.665 309.804L719.812 312.013L717.741 315.88L714.841 320.851L710.146 332.174L706.556 339.63L703.104 343.911L696.614 345.154L688.605 345.016L678.249 342.254L665.822 336.731L657.675 333.831L648.699 330.793L636.962 328.169L630.887 325.546L629.644 319.056L631.025 309.666L632.958 302.21L636.962 298.344L642.348 297.101L646.214 295.306L649.528 290.335L653.532 283.845L662.37 281.083L671.759 280.255L676.868 279.703L680.735 276.25L688.191 275.836L688.053 279.15L687.363 286.469L686.948 293.235L688.467 297.791L692.886 301.381L700.757 305.11L711.665 309.804Z" fill="#CB8374"/>
<path d="M446.202 171.947L465.259 168.771L468.897 161.264L469.002 152.145L483.151 154.032L507.677 160.74L514.869 123.574L490.069 125.419L478.749 125.314L467.534 124.37L460.198 121.855L449.716 116.405L434.624 108.858L421.837 101.941L412.404 97.8532L404.228 91.3549L397.73 84.0181L393.118 78.3584L389.66 80.3497L384.733 81.6074L379.702 82.3411L372.89 81.9219L366.706 82.1318L365.343 91.5648L363.666 97.9583L360.732 102.989L355.806 104.352L344.8 103.513L335.472 101.312L335.053 111.374L335.158 119.654L336.205 123.951L342.808 128.877L349.937 132.231L363.038 133.489L370.373 134.432L372.574 133.384L375.404 130.345L377.291 127.305L378.863 124.37L381.169 123.846L386.305 124.37L391.126 124.265L393.222 122.798L392.908 117.872L393.851 113.155L398.672 110.326L403.703 108.858L411.983 109.592L417.958 113.679L422.884 119.654L427.6 128.877L428.334 136.424L426.028 144.284L421.416 149.315L413.241 151.936H405.066L397.1 151.097L394.27 149.21L393.851 145.123V141.14L391.964 140.616L383.579 140.406L375.09 141.14L372.366 141.874L376.872 144.913L382.741 147.114L384.103 149.315L383.055 157.491L381.317 166.956L396.29 171.947L408.089 172.855H427.145L446.202 171.947Z" fill="#CB8374"/>
<path d="M2.25391 739.271C60.9981 704.476 92.8986 685.787 151.643 650.992M160.123 245.014L159.017 232.532L156.647 216.259L154.119 207.094L146.851 192.4L137.687 182.92L127.891 179.602L119.043 175.336L112.881 172.176L105.929 165.699L100.083 157.482L95.3435 147.528L96.2915 133.309L101.821 118.456L107.351 108.029L110.353 101.55L114.145 65.6842L106.403 61.5765L100.557 56.8362L96.7655 50.6741L94.2375 44.1962L96.7655 36.1388L105.929 28.397L117.305 24.4465L134.053 16.7051M268.316 235.831L270.139 127.506M271.33 137.326L245.143 138.814L247.077 126.465L250.499 111.586L252.136 94.0285L253.624 76.62L252.731 65.3119L249.16 56.8308L246.035 48.3498L244.994 39.2735L247.226 30.4949L250.648 24.6921L255.707 18.2941L262.997 12.3425M403.662 40.5424L403.027 33.1361L404.72 26.2589L407.153 18.8526V13.3508L407.365 9.33021M444.29 66.8881L462.595 38.0036L492.749 51.5465L513.381 20.2285L720.701 45.5049M737.721 2.42188L728.272 23.3325L721.147 37.5825L720.373 50.2838L719.443 69.8003L715.261 81.7271L712.009 91.95L712.164 100.004L714.952 106.975L719.598 111.776L729.666 117.198L735.552 120.295L737.101 127.111L735.707 138.263L730.441 156.541L723.78 172.649L720.218 184.266L716.655 202.389L716.036 227.791L716.346 244.675L718.514 265.276L724.4 286.806L731.938 310.816M1102.77 730.477H1088.61L1073.4 726.968L1058.06 722.029L1047.93 716.31M681.31 1013.08L689.425 998.985L691.987 981.688L691.346 960.761L688.357 942.396L680.343 920.192" stroke="#FF0000" stroke-width="3" stroke-linecap="round" stroke-linejoin="round"/>
<path d="M465.262 168.762L464.776 194.674L466.997 206.077L472.181 216.295L479.882 224.44L489.656 229.327L508.907 229.772L534.231 228.587L544.005 236.88L558.518 246.062L568.44 249.764L583.842 250.652L594.06 247.987L614.941 247.691L624.419 250.061L635.378 252.43L640.265 250.357L646.929 250.061L651.076 252.282L655.074 252.43L667.662 248.727L688.189 275.848L686.025 290.045L686.224 298.767L693.604 305.867L719.824 312.039L727.491 311.815L733.859 312.999L737.117 317.294L737.71 322.329L753.407 327.809L765.106 330.918L772.659 335.361L778.583 343.062L787.024 356.538L793.688 365.572L803.61 375.346L812.644 382.602L822.862 393.561L836.783 410.444L852.629 427.77L867.586 443.469L882.84 461.98L896.76 481.528L910.977 501.372L923.713 522.994L933.043 539.283L942.521 548.91L954.812 558.091L963.698 568.754L970.362 584.452L978.507 595.115L987.689 608.443L993.908 626.806L1001.76 645.317L1013.01 666.495L1025.6 684.858L1037.6 701.444L1048.7 716.549L1041.3 721.881L1030.49 729.433L1015.38 743.058L1003.68 755.646L993.168 765.568L982.357 772.973L956.885 783.191L931.266 791.336L914.531 796.519L899.426 799.037L881.507 805.997L860.33 815.179L835.746 828.359L809.682 843.317L778.731 860.939L739.635 884.634L695.651 909.958L672.549 924.767L667.958 919.288L661.738 910.402L650.928 901.073L641.005 895.297L630.195 892.631L617.459 890.706L607.981 889.817L594.208 892.779L583.99 894.704L572.143 895.593L561.48 899.739L549.632 907.292L535.415 920.028L529.345 917.807L520.756 911.439L514.98 899.74L514.536 879.599L517.794 850.573L521.2 823.028L526.828 800.074L533.788 780.97L539.563 767.494L546.968 757.275L557.927 747.649L572.144 741.133L585.62 736.987L599.244 736.839L612.425 742.17L629.011 750.167L644.561 760.978L659.074 770.307L670.032 770.752L681.435 767.049L693.135 760.829L698.91 745.28L699.947 727.657L695.652 710.034L685.73 694.929L674.475 684.414L662.776 679.379L653.298 678.046L627.974 679.231L610.351 678.935L598.06 675.825L594.802 669.161L593.173 659.831L596.283 652.278L603.243 645.318L614.794 641.319L625.161 640.579L638.045 639.246L646.486 634.655L654.187 628.731L662.48 620.142L666.922 616.44L675.216 614.218L689.432 612.145L696.541 608.887L698.614 604L697.578 594.818L691.654 582.527L678.918 568.162L665.738 556.315L654.779 550.095L646.338 548.762L638.193 548.91L622.495 557.055L603.539 569.791L565.48 587.414L508.908 618.069L476.476 634.063L461.519 639.69L452.634 640.579L447.154 638.061L436.936 628.88L424.052 634.803L405.392 642.06L383.919 651.834L365.259 658.942L354.152 660.719L344.823 660.127L338.751 655.24L331.939 648.428L329.569 641.764L319.499 641.023L313.131 638.209L308.096 633.174L292.25 638.061L277.293 643.393L253.154 649.909L229.607 654.796L209.911 657.313L190.067 657.461L168.889 657.017L157.486 654.796L151.563 650.649L146.972 642.504L141.937 630.361L134.384 611.997L128.757 595.559L128.46 581.194L132.311 562.979L137.05 545.504L143.121 526.548L145.639 512.035L146.083 486.267L145.491 463.165L141.641 449.688L140.16 437.545L141.789 412.517L142.973 388.378L144.602 359.649L142.233 345.284L138.383 335.361L121.056 334.177L115.28 331.363L113.059 322.774L116.168 309.297L119.87 298.931L127.866 288.564L134.235 283.677L135.567 279.531H140.899L141.639 282.345H146.231L150.377 276.865L154.227 271.238L159.262 257.909L159.854 243.989L182.512 243.693L185.178 239.546L198.951 240.286L202.358 243.989L200.728 249.912L202.21 256.28L207.986 257.021L218.795 257.465L230.198 255.984L235.235 251.986L237.604 246.358L238.195 239.398L240.713 235.548L248.267 234.067L262.334 235.844L280.846 236.732L301.728 233.03L320.387 228.587L326.161 231.993L332.086 233.622L341.861 233.77L351.486 231.549L357.261 227.699L362.593 229.92H370.886L376.069 224.589L378.736 215.259L380.363 190.528L381.323 166.921" stroke="#FF0000" stroke-width="3" stroke-linecap="round" stroke-linejoin="round"/>
<path d="M660.343 929.55L661.53 942.539L668.104 942.698L668.262 934.381L667.549 923.689L666.757 916.877L663.43 908.719L659.629 898.898L656.381 894.7L650.203 887.334L642.996 881.948L634.838 879.096L627.076 878.542L615.274 880.601L605.532 882.423L594.681 886.146L582.246 888.363L571.315 888.997L560.068 889.551L550.801 892.72L544.703 896.363L535.198 897.472L527.674 896.917L519.12 893.036L512.466 887.413L506.764 884.799L501.298 881.789L495.437 878.859L491.794 876.087L490.764 873.077V870.146L492.982 865.711L498.051 860.167L504.467 854.622L509.298 848.286L512.387 841.237L515.714 833.079L517.773 823.495L519.357 814.782L521.496 804.961L527.911 794.268L532.822 787.061L538.129 780.803L544.703 775.418L551.356 769.715L552.544 764.804L551.831 761.082L548.029 755.854L542.802 750.943L538.445 748.884L535.911 747.141L535.515 744.686L537.337 742.548L542.564 740.409L550.564 738.667L559.197 737.003L570.999 734.944L580.978 735.578L588.74 737.162L596.819 742.152L604.581 748.409L614.64 758.072L621.927 764.646L636.897 770.586L645.134 773.041L654.56 773.517L664.539 771.141L670.955 766.151L676.578 761.002L679.826 755.696L681.647 744.607L682.202 730.746L681.964 709.678L682.44 698.668L680.38 691.461L676.974 685.52L669.054 678.313L661.292 674.432L653.213 672.372L644.025 671.105L633.412 670.867L624.383 671.739L615.67 672.61L605.373 670.867L595.631 667.145L588.978 661.6L583.909 656.769L581.77 652.888L582.404 649.165L586.76 645.918L593.81 642.987L605.849 640.69L615.67 639.502L622.798 637.285L629.135 633.166L636.738 627.78L642.916 623.265L649.49 618.988L659.391 615.741L672.143 610.91L679.034 607.187L685.212 602.039L687.905 595.544L687.509 585.96L684.657 578.594L677.45 568.218L669.925 559.426L663.43 553.803L650.995 544.457L641.174 537.645L632.937 531.23L621.927 523.705L609.334 513.805L599.829 506.755L585.731 497.726L572.424 492.182L554.049 487.033L537.495 483.944L523.555 479.271L510.09 474.757L501.695 470.559L494.725 465.411L489.18 460.025L485.695 454.48L484.586 448.857L485.299 442.124L488.151 436.105L492.348 428.818L499.318 423.194L504.308 418.363L508.269 411.235L508.744 405.769L507.239 400.304L503.12 394.998L493.22 389.453L478.646 383.038L468.191 380.82L457.974 379.711L449.578 377.256L442.766 374.008L436.509 369.177L427.876 361.336L419.084 352.306L411.639 343.435L406.807 331.713L401.184 324.109L396.669 319.278L392.867 317.139L386.689 316.743L377.185 316.981L367.68 317.694L360.869 318.961L353.899 319.674L343.681 320.07L331.088 319.912L319.365 316.743L312.871 315.635L309.227 313.575L305.109 307.08V301.774L307.009 297.576L312.395 291.794L320.633 287.121L328.87 282.527L334.731 278.963L337.662 273.102L338.771 263.518L338.216 256.706L333.701 247.202L328.949 243.162L325.306 241.024L316.435 240.153L309.148 240.39L303.604 241.261L295.446 244.509L286.812 249.578L280.951 254.409L270.971 264.389L264.793 270.567L254.022 277.616L244.517 282.606L236.755 285.378L229.627 288.626L227.726 289.735L220.36 296.705L213.944 301.695L210.142 303.991L201.905 305.338L195.806 305.259L191.45 303.199L182.737 298.051L178.619 294.487L174.025 291.952L169.51 289.814L163.966 288.705H158.58L150.58 290.527L142.026 294.329L133.155 299.239L127.532 303.516L121.275 308.823L115.889 311.674L112.72 311.516L110.107 307.397L108.523 300.427L108.127 295.913L108.523 291.952L111.216 288.309L118.265 283.557L127.453 281.26L133.631 278.092L138.7 273.418L141.868 268.745L143.531 261.934L143.61 252.508L143.69 245.222L141.63 235.796L138.858 230.49L134.898 227.48L129.829 221.619L126.106 215.599L121.037 213.302L116.443 212.748L111.691 210.926L109.315 209.104L105.592 203.956L99.6517 197.145V212.431L104.246 217.342L108.76 221.381L116.047 223.995L124.443 229.777L129.67 237.302L132.522 247.519L132.997 254.489L131.809 259.796L129.433 264.31L126.661 268.112L119.532 275.874L115.017 279.676L109.711 283.874L105.275 287.517L101.394 293.378L97.9902 304.388L98.4647 313.734L101.396 317.932L105.671 318.962L113.197 318.566L120.8 317.774L127.216 315.001L132.997 310.328L143.057 304.309L149.632 301.061C153.037 300.19 159.944 298.432 160.324 298.368C160.704 298.305 165.551 298.236 167.927 298.21L173.472 300.349L177.828 305.814L181.472 310.249L193.115 317.061L200.006 319.12L205.787 319.595L211.014 317.457L215.45 313.892L220.281 309.061L230.262 298.527L237.785 294.487L244.28 291.874L255.211 287.676L262.894 283.795L270.576 279.755L278.338 275.874L285.149 271.597L295.526 263.043L303.129 257.736L309.703 253.618L318.495 252.984L325.148 255.598L326.891 259.558L326.97 263.835L324.515 270.013L319.446 275.399L314.931 279.597L307.882 284.903L300.912 291.477L297.427 297.893L296.317 305.496L297.743 312.07L302.1 319.436L308.991 324.427L325.386 329.892L341.068 332.981H354.059L362.533 332.268L370.69 329.654L377.106 328.228L383.285 327.832L388.353 329.021L393.345 331.001L397.463 334.247L401.027 340.346L403.402 343.99L407.997 351.594L412.669 357.534L418.688 364.267L428.035 372.662L441.024 383.196L447.598 388.503L452.985 390.087L462.964 390.959L473.419 392.543L481.102 395.315L487.28 399.75L490.448 406.483L491.24 412.898L489.339 419.155L486.012 424.541L482.527 429.531L476.824 439.749L475.559 449.333L476.746 457.173L480.309 466.361L488.23 473.411L501.932 479.113L524.11 487.113L541.297 491.945L559.673 496.459L580.424 503.112L592.701 509.527L604.106 517.845L620.581 529.487L636.976 540.734L646.006 547.308L656.381 555.784L665.173 563.862L676.183 576.93L680.143 583.267L681.014 588.494L680.46 592.218L677.846 596.415L670.638 603.069L657.966 609.642L645.768 614.315L634.283 620.335L626.284 625.879L618.522 630.948L612.977 634.037L604.344 634.988L595.077 636.176L581.137 639.899L574.642 644.334L573.217 648.77L573.454 653.838L577.494 660.967L582.721 665.72L588.978 671.897L595.79 676.254L607.037 679.818L618.442 680.531L628.66 679.501L639.59 678.392L651.867 679.659L661.292 682.035L668.025 685.758L672.302 691.223L673.49 700.094L672.777 716.093L672.935 733.36L671.985 746.27L669.529 758.626L666.044 764.25L660.5 766.863L653.926 767.893L646.956 767.101L641.649 763.854L632.224 760.527L622.007 752.527L613.453 746.033L605.77 739.379L596.186 733.597L582.087 728.766L571.553 727.895L559.356 727.894L548.584 729.479L539.634 732.568L533.297 735.499L527.515 739.3L524.347 743.656L522.763 748.964L524.823 753.478L531.397 753.161L537.97 754.27L541.059 757.597L542.96 762.032L542.248 766.309L538.129 770.586L532.981 775.972L527.119 780.724L518.169 791.259L515.239 797.674L513.813 804.564L512.863 812.881L511.991 820.247L509.061 828.485L501.22 840.761L494.962 846.939L489.339 854.147L483.715 864.602L483.004 873.314L484.666 879.255L487.043 882.423L492.191 884.482L498.368 886.304L502.409 888.363L508.349 892.64L514.368 898.264L521.259 904.758L528.388 906.897L536.07 906.818L544.625 905.867L559.752 898.976L566.088 896.838L572.346 896.68L579.792 896.442L591.117 895.333L599.75 892.799L610.918 889.947L622.958 887.096L632.145 885.671L638.561 888.046L643.472 893.353L649.649 898.422L653.69 904.68L657.57 917.827L660.343 929.55Z" fill="#41B8FF"/>
<path d="M1014 895.726C1014 896.765 1013.8 897.705 1013.42 898.545C1013.04 899.365 1012.5 900.066 1011.8 900.646C1011.12 901.225 1010.31 901.675 1009.38 901.995C1008.45 902.295 1007.44 902.445 1006.34 902.445C1005.32 902.445 1004.42 902.286 1003.62 901.966C1002.84 901.626 1002.17 901.196 1001.61 900.676C1001.07 900.156 1000.64 899.595 1000.32 898.995C999.996 898.395 999.775 897.816 999.655 897.256L1003.13 895.936C1003.45 896.816 1003.88 897.496 1004.4 897.976C1004.94 898.455 1005.61 898.695 1006.41 898.695C1007.01 898.695 1007.58 898.555 1008.12 898.275C1008.66 897.995 1009.09 897.546 1009.41 896.926C1009.75 896.306 1009.92 895.505 1009.92 894.525V881.025H1014V895.726Z" fill="#232323"/>
<path d="M869.79 880.665C871.13 880.665 872.3 880.866 873.3 881.266C874.32 881.646 875.17 882.195 875.85 882.915C876.53 883.635 877.05 884.486 877.41 885.466L873.42 886.695C873.18 886.015 872.74 885.435 872.1 884.955C871.46 884.475 870.65 884.235 869.67 884.235C868.67 884.235 867.88 884.466 867.3 884.926C866.74 885.386 866.46 886.035 866.46 886.875C866.46 887.535 866.68 888.056 867.12 888.436C867.58 888.815 868.2 889.106 868.979 889.306L871.74 889.995C873.54 890.435 874.94 891.225 875.94 892.365C876.94 893.505 877.44 894.776 877.44 896.176C877.44 897.416 877.14 898.505 876.54 899.445C875.94 900.365 875.07 901.085 873.93 901.605C872.79 902.125 871.41 902.386 869.79 902.386C868.73 902.386 867.74 902.255 866.82 901.995C865.9 901.735 865.08 901.375 864.36 900.915C863.64 900.435 863.04 899.905 862.56 899.325C862.1 898.745 861.8 898.135 861.66 897.495L865.68 896.295C865.94 896.975 866.4 897.565 867.06 898.065C867.72 898.545 868.55 898.795 869.55 898.815C870.61 898.835 871.47 898.605 872.13 898.125C872.81 897.645 873.15 897.025 873.15 896.266C873.15 895.606 872.88 895.055 872.34 894.615C871.82 894.155 871.1 893.805 870.18 893.565L867.45 892.846C866.43 892.586 865.53 892.196 864.75 891.676C863.97 891.136 863.36 890.475 862.92 889.695C862.48 888.915 862.26 888.006 862.26 886.966C862.26 884.986 862.91 883.446 864.21 882.346C865.53 881.226 867.39 880.665 869.79 880.665Z" fill="#232323"/>
<path d="M922.588 880.665C923.868 880.665 925.048 880.855 926.128 881.235C927.208 881.615 928.158 882.145 928.978 882.825C929.817 883.485 930.517 884.246 931.077 885.105L927.718 887.205C927.378 886.665 926.927 886.186 926.367 885.766C925.827 885.346 925.227 885.015 924.567 884.775C923.908 884.535 923.248 884.415 922.588 884.415C921.268 884.415 920.097 884.726 919.077 885.346C918.058 885.946 917.258 886.775 916.678 887.835C916.098 888.895 915.808 890.125 915.808 891.525C915.808 892.905 916.087 894.136 916.647 895.216C917.227 896.296 918.037 897.146 919.077 897.766C920.117 898.366 921.318 898.665 922.678 898.665C923.697 898.665 924.607 898.476 925.407 898.096C926.207 897.696 926.847 897.145 927.327 896.445C927.807 895.745 928.078 894.925 928.138 893.985H923.277V890.775H932.098V893.325C932.058 895.245 931.628 896.885 930.808 898.245C929.988 899.585 928.867 900.615 927.447 901.335C926.027 902.035 924.408 902.386 922.588 902.386C920.448 902.386 918.548 901.926 916.888 901.006C915.248 900.066 913.958 898.785 913.018 897.165C912.078 895.525 911.607 893.645 911.607 891.525C911.607 889.405 912.078 887.535 913.018 885.915C913.958 884.275 915.248 882.995 916.888 882.075C918.548 881.135 920.448 880.665 922.588 880.665Z" fill="#232323"/>
<path fill-rule="evenodd" clip-rule="evenodd" d="M944.643 880.695C946.763 880.695 948.623 881.165 950.223 882.105C951.843 883.025 953.112 884.305 954.032 885.945C954.952 887.565 955.412 889.436 955.412 891.556C955.412 893.655 954.952 895.525 954.032 897.165C953.132 898.785 951.873 900.066 950.253 901.006C948.653 901.926 946.812 902.386 944.732 902.386C942.613 902.386 940.733 901.926 939.093 901.006C937.473 900.066 936.202 898.785 935.282 897.165C934.362 895.525 933.902 893.655 933.902 891.556C933.902 889.416 934.362 887.535 935.282 885.915C936.202 884.275 937.463 882.995 939.062 882.075C940.682 881.155 942.543 880.695 944.643 880.695ZM944.643 884.445C943.383 884.445 942.253 884.755 941.253 885.375C940.273 885.975 939.502 886.805 938.942 887.865C938.382 888.925 938.103 890.156 938.103 891.556C938.103 892.936 938.382 894.156 938.942 895.216C939.502 896.276 940.282 897.115 941.282 897.735C942.282 898.335 943.432 898.636 944.732 898.636C946.012 898.636 947.133 898.335 948.093 897.735C949.073 897.115 949.832 896.276 950.372 895.216C950.932 894.156 951.213 892.936 951.213 891.556C951.213 890.156 950.932 888.925 950.372 887.865C949.812 886.805 949.042 885.975 948.062 885.375C947.083 884.755 945.942 884.445 944.643 884.445Z" fill="#232323"/>
<path fill-rule="evenodd" clip-rule="evenodd" d="M987.592 880.695C989.712 880.695 991.572 881.165 993.172 882.105C994.792 883.025 996.061 884.305 996.981 885.945C997.901 887.565 998.361 889.436 998.361 891.556C998.361 893.655 997.901 895.525 996.981 897.165C996.081 898.785 994.822 900.066 993.202 901.006C991.602 901.926 989.762 902.386 987.682 902.386C985.562 902.386 983.682 901.926 982.042 901.006C980.422 900.066 979.151 898.785 978.231 897.165C977.312 895.525 976.852 893.655 976.852 891.556C976.852 889.416 977.311 887.535 978.231 885.915C979.151 884.275 980.412 882.995 982.012 882.075C983.632 881.155 985.492 880.695 987.592 880.695ZM987.592 884.445C986.332 884.445 985.202 884.755 984.202 885.375C983.222 885.975 982.452 886.805 981.892 887.865C981.332 888.925 981.052 890.156 981.052 891.556C981.052 892.936 981.332 894.156 981.892 895.216C982.452 896.276 983.232 897.115 984.231 897.735C985.231 898.335 986.382 898.636 987.682 898.636C988.962 898.636 990.082 898.335 991.042 897.735C992.022 897.115 992.781 896.276 993.321 895.216C993.881 894.156 994.162 892.936 994.162 891.556C994.162 890.156 993.881 888.925 993.321 887.865C992.761 886.805 991.992 885.975 991.012 885.375C990.032 884.755 988.892 884.445 987.592 884.445Z" fill="#232323"/>
<path fill-rule="evenodd" clip-rule="evenodd" d="M1027.76 880.695C1029.88 880.695 1031.74 881.165 1033.34 882.105C1034.96 883.025 1036.23 884.305 1037.15 885.945C1038.07 887.565 1038.53 889.436 1038.53 891.556C1038.53 893.655 1038.07 895.525 1037.15 897.165C1036.25 898.785 1034.99 900.066 1033.37 901.006C1031.77 901.926 1029.93 902.386 1027.85 902.386C1025.73 902.386 1023.85 901.926 1022.21 901.006C1020.59 900.066 1019.32 898.785 1018.4 897.165C1017.48 895.525 1017.02 893.655 1017.02 891.556C1017.02 889.416 1017.48 887.535 1018.4 885.915C1019.32 884.275 1020.58 882.995 1022.18 882.075C1023.8 881.155 1025.66 880.695 1027.76 880.695ZM1027.76 884.445C1026.5 884.445 1025.37 884.755 1024.37 885.375C1023.39 885.975 1022.62 886.805 1022.06 887.865C1021.5 888.925 1021.22 890.156 1021.22 891.556C1021.22 892.936 1021.5 894.156 1022.06 895.216C1022.62 896.276 1023.4 897.115 1024.4 897.735C1025.4 898.335 1026.55 898.636 1027.85 898.636C1029.13 898.636 1030.25 898.335 1031.21 897.735C1032.19 897.115 1032.95 896.276 1033.49 895.216C1034.05 894.156 1034.33 892.936 1034.33 891.556C1034.33 890.156 1034.05 888.925 1033.49 887.865C1032.93 886.805 1032.16 885.975 1031.18 885.375C1030.2 884.755 1029.06 884.445 1027.76 884.445Z" fill="#232323"/>
<path d="M885.072 902.025H880.963V881.025H885.072V902.025Z" fill="#232323"/>
<path d="M904.185 895.125V881.025H908.265V902.025H904.185L893.744 887.655V902.025H889.635V881.025H893.925L904.185 895.125Z" fill="#232323"/>
<path fill-rule="evenodd" clip-rule="evenodd" d="M966.546 881.025C968.026 881.025 969.336 881.316 970.476 881.896C971.615 882.475 972.506 883.275 973.146 884.295C973.786 885.295 974.105 886.466 974.105 887.806C974.105 889.186 973.736 890.406 972.996 891.466C972.256 892.506 971.286 893.295 970.086 893.835L974.946 902.025H970.296L966.006 894.585H962.855V902.025H958.746V881.025H966.546ZM962.855 890.835H966.576C967.196 890.835 967.746 890.705 968.226 890.445C968.726 890.185 969.116 889.825 969.396 889.365C969.695 888.905 969.846 888.386 969.846 887.806C969.846 886.906 969.515 886.175 968.855 885.615C968.216 885.055 967.386 884.775 966.366 884.775H962.855V890.835Z" fill="#232323"/>
<path d="M206.524 784.64C207.864 784.64 209.034 784.84 210.034 785.24C211.054 785.62 211.904 786.17 212.584 786.89C213.264 787.61 213.785 788.46 214.145 789.44L210.154 790.67C209.914 789.99 209.474 789.41 208.834 788.93C208.194 788.45 207.384 788.21 206.404 788.21C205.404 788.21 204.614 788.44 204.034 788.9C203.474 789.36 203.194 790.01 203.194 790.85C203.194 791.51 203.414 792.03 203.854 792.41C204.314 792.79 204.934 793.08 205.714 793.28L208.475 793.97C210.275 794.41 211.675 795.2 212.675 796.34C213.675 797.48 214.175 798.75 214.175 800.15C214.175 801.39 213.874 802.48 213.274 803.42C212.674 804.34 211.804 805.06 210.664 805.58C209.524 806.1 208.144 806.36 206.524 806.36C205.465 806.36 204.475 806.23 203.555 805.97C202.635 805.71 201.815 805.35 201.095 804.89C200.375 804.41 199.774 803.88 199.294 803.3C198.834 802.72 198.535 802.11 198.395 801.47L202.414 800.27C202.674 800.949 203.134 801.54 203.794 802.04C204.454 802.52 205.284 802.77 206.284 802.79C207.344 802.81 208.204 802.58 208.864 802.1C209.544 801.62 209.885 801 209.885 800.24C209.885 799.58 209.614 799.03 209.074 798.59C208.554 798.13 207.834 797.78 206.914 797.54L204.185 796.82C203.165 796.56 202.264 796.17 201.484 795.65C200.704 795.11 200.094 794.45 199.654 793.67C199.214 792.89 198.994 791.98 198.994 790.94C198.994 788.961 199.644 787.42 200.944 786.32C202.264 785.2 204.124 784.64 206.524 784.64Z" fill="#232323"/>
<path fill-rule="evenodd" clip-rule="evenodd" d="M256.885 784.67C259.005 784.67 260.865 785.14 262.465 786.08C264.085 787 265.354 788.28 266.274 789.92C267.194 791.54 267.654 793.41 267.654 795.53C267.654 797.63 267.194 799.5 266.274 801.14C265.374 802.76 264.115 804.04 262.495 804.98C260.895 805.9 259.055 806.36 256.975 806.36C254.855 806.36 252.975 805.9 251.335 804.98C249.715 804.04 248.444 802.76 247.524 801.14C246.605 799.5 246.145 797.63 246.145 795.53C246.145 793.39 246.604 791.51 247.524 789.89C248.444 788.25 249.705 786.97 251.305 786.05C252.925 785.13 254.785 784.67 256.885 784.67ZM256.885 788.42C255.625 788.42 254.495 788.73 253.495 789.35C252.515 789.95 251.745 790.78 251.185 791.84C250.625 792.9 250.345 794.13 250.345 795.53C250.345 796.91 250.625 798.13 251.185 799.19C251.745 800.25 252.525 801.09 253.524 801.71C254.524 802.31 255.675 802.61 256.975 802.61C258.255 802.61 259.375 802.31 260.335 801.71C261.315 801.09 262.074 800.25 262.614 799.19C263.174 798.13 263.455 796.91 263.455 795.53C263.455 794.13 263.174 792.9 262.614 791.84C262.054 790.78 261.285 789.95 260.305 789.35C259.325 788.73 258.185 788.42 256.885 788.42Z" fill="#232323"/>
<path d="M221.807 806H217.697V785H221.807V806Z" fill="#232323"/>
<path fill-rule="evenodd" clip-rule="evenodd" d="M233.089 785C235.229 785 237.119 785.45 238.759 786.35C240.419 787.25 241.709 788.49 242.629 790.07C243.569 791.63 244.039 793.44 244.039 795.5C244.039 797.54 243.569 799.35 242.629 800.93C241.709 802.51 240.419 803.75 238.759 804.65C237.119 805.55 235.229 806 233.089 806H226.369V785H233.089ZM230.479 802.16H233.089C234.049 802.16 234.939 801.99 235.759 801.65C236.579 801.31 237.289 800.84 237.889 800.24C238.509 799.64 238.989 798.94 239.329 798.14C239.669 797.32 239.839 796.44 239.839 795.5C239.839 794.56 239.669 793.69 239.329 792.89C238.989 792.07 238.509 791.36 237.889 790.76C237.289 790.16 236.579 789.69 235.759 789.35C234.939 789.01 234.049 788.84 233.089 788.84H230.479V802.16Z" fill="#232323"/>
<path fill-rule="evenodd" clip-rule="evenodd" d="M277.708 785C279.848 785 281.738 785.45 283.378 786.35C285.038 787.25 286.328 788.49 287.248 790.07C288.188 791.63 288.658 793.44 288.658 795.5C288.658 797.54 288.188 799.35 287.248 800.93C286.328 802.51 285.038 803.75 283.378 804.65C281.738 805.55 279.848 806 277.708 806H270.988V785H277.708ZM275.098 802.16H277.708C278.668 802.16 279.558 801.99 280.378 801.65C281.198 801.31 281.908 800.84 282.508 800.24C283.128 799.64 283.608 798.94 283.948 798.14C284.288 797.32 284.458 796.44 284.458 795.5C284.458 794.56 284.288 793.69 283.948 792.89C283.608 792.07 283.128 791.36 282.508 790.76C281.908 790.16 281.198 789.69 280.378 789.35C279.558 789.01 278.668 788.84 277.708 788.84H275.098V802.16Z" fill="#232323"/>
<path fill-rule="evenodd" clip-rule="evenodd" d="M310.894 806H306.544L304.744 801.38H296.104L294.304 806H289.954L298.233 785H302.614L310.894 806ZM297.454 797.75H303.394L300.424 790.13L297.454 797.75Z" fill="#232323"/>
<path fill-rule="evenodd" clip-rule="evenodd" d="M320.13 785C322.27 785 324.16 785.45 325.8 786.35C327.46 787.25 328.75 788.49 329.67 790.07C330.61 791.63 331.08 793.44 331.08 795.5C331.08 797.54 330.61 799.35 329.67 800.93C328.75 802.51 327.46 803.75 325.8 804.65C324.16 805.55 322.27 806 320.13 806H313.41V785H320.13ZM317.52 802.16H320.13C321.09 802.16 321.98 801.99 322.8 801.65C323.62 801.31 324.33 800.84 324.93 800.24C325.55 799.64 326.03 798.94 326.37 798.14C326.71 797.32 326.88 796.44 326.88 795.5C326.88 794.56 326.71 793.69 326.37 792.89C326.03 792.07 325.55 791.36 324.93 790.76C324.33 790.16 323.62 789.69 322.8 789.35C321.98 789.01 321.09 788.84 320.13 788.84H317.52V802.16Z" fill="#232323"/>
<path d="M338.525 806H334.416V785H338.525V806Z" fill="#232323"/>
<path d="M106.891 527.218C106.891 527.98 106.751 528.67 106.473 529.286C106.194 529.887 105.798 530.401 105.284 530.826C104.786 531.251 104.191 531.581 103.502 531.815C102.827 532.035 102.087 532.146 101.28 532.146C100.532 532.146 99.865 532.029 99.2783 531.794C98.7064 531.545 98.2153 531.229 97.8047 530.848C97.4088 530.466 97.093 530.056 96.8584 529.616C96.6237 529.176 96.462 528.751 96.374 528.34L98.9258 527.372C99.1604 528.017 99.4693 528.516 99.8506 528.868C100.247 529.22 100.738 529.396 101.324 529.396C101.764 529.396 102.182 529.293 102.578 529.088C102.974 528.883 103.29 528.552 103.524 528.098C103.774 527.643 103.898 527.056 103.898 526.338V516.438H106.891V527.218Z" fill="#232323"/>
<path fill-rule="evenodd" clip-rule="evenodd" d="M116.983 516.196C118.538 516.196 119.902 516.54 121.075 517.229C122.263 517.904 123.194 518.843 123.869 520.046C124.544 521.234 124.881 522.606 124.881 524.16C124.881 525.7 124.544 527.071 123.869 528.273C123.209 529.461 122.285 530.401 121.097 531.09C119.923 531.764 118.574 532.102 117.049 532.102C115.494 532.102 114.116 531.764 112.913 531.09C111.725 530.401 110.794 529.461 110.119 528.273C109.445 527.071 109.106 525.7 109.106 524.16C109.106 522.591 109.444 521.211 110.119 520.023C110.794 518.821 111.718 517.883 112.891 517.208C114.079 516.533 115.443 516.196 116.983 516.196ZM116.983 518.946C116.059 518.946 115.23 519.173 114.497 519.628C113.778 520.068 113.213 520.677 112.803 521.454C112.392 522.231 112.187 523.134 112.187 524.16C112.187 525.172 112.392 526.067 112.803 526.844C113.213 527.621 113.785 528.237 114.519 528.691C115.252 529.131 116.096 529.352 117.049 529.352C117.987 529.352 118.809 529.131 119.513 528.691C120.231 528.237 120.789 527.621 121.185 526.844C121.595 526.066 121.801 525.172 121.801 524.16C121.801 523.133 121.595 522.231 121.185 521.454C120.774 520.677 120.21 520.068 119.491 519.628C118.773 519.173 117.937 518.946 116.983 518.946Z" fill="#232323"/>
<path d="M28.9668 519.188H24.3691V531.838H21.3545V519.188H16.7344V516.438H28.9668V519.188Z" fill="#232323"/>
<path fill-rule="evenodd" clip-rule="evenodd" d="M36.666 516.438C37.7513 516.438 38.7128 516.651 39.5488 517.076C40.3846 517.501 41.0376 518.088 41.5068 518.836C41.9761 519.569 42.21 520.428 42.21 521.41C42.2099 522.422 41.939 523.317 41.3965 524.094C40.8539 524.856 40.1426 525.436 39.2627 525.832L42.8262 531.838H39.416L36.2705 526.382H33.96V531.838H30.9463V516.438H36.666ZM33.96 523.632H36.6885C37.1431 523.632 37.5465 523.536 37.8984 523.346C38.2651 523.155 38.5515 522.891 38.7568 522.554C38.9767 522.217 39.0859 521.835 39.0859 521.41C39.0859 520.75 38.8444 520.214 38.3604 519.804C37.891 519.393 37.2821 519.188 36.5342 519.188H33.96V523.632Z" fill="#232323"/>
<path d="M48.1396 531.838H45.126V516.438H48.1396V531.838Z" fill="#232323"/>
<path d="M54.499 522.576H61.6279V516.438H64.6416V531.838H61.6279V525.348H54.499V531.838H51.4854V516.416H54.499V522.576Z" fill="#232323"/>
<path fill-rule="evenodd" clip-rule="evenodd" d="M81.8457 531.838H78.6553L77.3359 528.45H70.999L69.6797 531.838H66.4893L72.5615 516.438H75.7734L81.8457 531.838ZM71.9893 525.788H76.3457L74.167 520.2L71.9893 525.788Z" fill="#232323"/>
<path fill-rule="evenodd" clip-rule="evenodd" d="M89.4102 516.438C90.4955 516.438 91.457 516.651 92.293 517.076C93.1288 517.501 93.7817 518.088 94.251 518.836C94.7202 519.569 94.9541 520.428 94.9541 521.41C94.9541 522.422 94.6832 523.317 94.1406 524.094C93.598 524.856 92.8868 525.436 92.0068 525.832L95.5703 531.838H92.1602L89.0146 526.382H86.7041V531.838H83.6904V516.438H89.4102ZM86.7041 523.632H89.4326C89.8873 523.632 90.2906 523.536 90.6426 523.346C91.0092 523.155 91.2957 522.891 91.501 522.554C91.7208 522.217 91.83 521.835 91.8301 521.41C91.8301 520.75 91.5885 520.214 91.1045 519.804C90.6352 519.393 90.0263 519.188 89.2783 519.188H86.7041V523.632Z" fill="#232323"/>
<path d="M878.342 313.932C878.342 314.971 878.151 315.911 877.771 316.751C877.391 317.571 876.851 318.272 876.151 318.852C875.471 319.431 874.662 319.881 873.722 320.201C872.802 320.501 871.791 320.651 870.691 320.651C869.672 320.651 868.762 320.492 867.962 320.172C867.182 319.832 866.512 319.402 865.952 318.882C865.412 318.362 864.982 317.801 864.662 317.201C864.342 316.601 864.122 316.022 864.002 315.462L867.481 314.142C867.801 315.022 868.222 315.702 868.742 316.182C869.282 316.661 869.952 316.901 870.752 316.901C871.352 316.901 871.922 316.761 872.462 316.481C873.002 316.201 873.432 315.752 873.752 315.132C874.092 314.512 874.262 313.711 874.262 312.731V299.231H878.342V313.932Z" fill="#232323"/>
<path d="M978.068 313.932C978.068 314.971 977.878 315.911 977.498 316.751C977.118 317.571 976.578 318.272 975.878 318.852C975.198 319.431 974.388 319.881 973.448 320.201C972.528 320.501 971.518 320.651 970.418 320.651C969.398 320.651 968.488 320.492 967.688 320.172C966.909 319.832 966.239 319.402 965.679 318.882C965.139 318.362 964.709 317.801 964.389 317.201C964.069 316.601 963.849 316.022 963.729 315.462L967.208 314.142C967.528 315.022 967.949 315.702 968.469 316.182C969.009 316.661 969.679 316.901 970.479 316.901C971.078 316.901 971.649 316.761 972.188 316.481C972.728 316.201 973.159 315.752 973.479 315.132C973.819 314.512 973.988 313.711 973.988 312.731V299.231H978.068V313.932Z" fill="#232323"/>
<path fill-rule="evenodd" clip-rule="evenodd" d="M991.831 298.901C993.951 298.901 995.811 299.372 997.411 300.312C999.031 301.231 1000.3 302.512 1001.22 304.151C1002.14 305.771 1002.6 307.642 1002.6 309.762C1002.6 311.862 1002.14 313.731 1001.22 315.371C1000.32 316.991 999.061 318.272 997.441 319.212C995.841 320.132 994.001 320.592 991.921 320.592C989.801 320.592 987.921 320.132 986.281 319.212C984.661 318.272 983.391 316.991 982.471 315.371C981.551 313.731 981.091 311.861 981.091 309.762C981.091 307.622 981.551 305.741 982.471 304.121C983.391 302.481 984.651 301.201 986.251 300.281C987.871 299.361 989.731 298.901 991.831 298.901ZM991.831 302.651C990.571 302.651 989.441 302.961 988.441 303.581C987.461 304.181 986.691 305.011 986.131 306.071C985.571 307.131 985.291 308.362 985.291 309.762C985.291 311.142 985.571 312.362 986.131 313.422C986.691 314.482 987.471 315.321 988.471 315.941C989.471 316.541 990.621 316.842 991.921 316.842C993.201 316.842 994.321 316.541 995.281 315.941C996.261 315.322 997.021 314.482 997.561 313.422C998.121 312.362 998.401 311.142 998.401 309.762C998.401 308.362 998.121 307.131 997.561 306.071C997.001 305.011 996.231 304.181 995.251 303.581C994.271 302.961 993.131 302.651 991.831 302.651Z" fill="#232323"/>
<path fill-rule="evenodd" clip-rule="evenodd" d="M901.494 320.231H897.145L895.345 315.611H886.704L884.904 320.231H880.555L888.834 299.231H893.215L901.494 320.231ZM888.055 311.981H893.994L891.024 304.361L888.055 311.981Z" fill="#232323"/>
<path d="M917.395 302.981H911.125V320.231H907.015V302.981H900.715V299.231H917.395V302.981Z" fill="#232323"/>
<path d="M924.204 320.231H920.095V299.231H924.204V320.231Z" fill="#232323"/>
<path fill-rule="evenodd" clip-rule="evenodd" d="M936.566 299.231C938.046 299.231 939.356 299.522 940.496 300.102C941.636 300.681 942.526 301.481 943.166 302.501C943.806 303.501 944.126 304.672 944.126 306.012C944.126 307.392 943.757 308.612 943.017 309.672C942.277 310.712 941.306 311.501 940.106 312.041L944.967 320.231H940.316L936.026 312.791H932.876V320.231H928.767V299.231H936.566ZM932.876 309.041H936.597C937.216 309.041 937.766 308.911 938.246 308.651C938.746 308.391 939.136 308.031 939.416 307.571C939.716 307.111 939.866 306.592 939.866 306.012C939.866 305.112 939.536 304.381 938.876 303.821C938.236 303.262 937.406 302.982 936.387 302.981H932.876V309.041Z" fill="#232323"/>
<path d="M961.393 302.981H952.212V307.751H960.132V311.411H952.212V316.481H961.513V320.231H948.103V299.231H961.393V302.981Z" fill="#232323"/>
<path fill-rule="evenodd" clip-rule="evenodd" d="M617.373 150.897C619.493 150.897 621.353 151.368 622.953 152.308C624.573 153.228 625.843 154.508 626.763 156.147C627.683 157.767 628.143 159.638 628.143 161.758C628.143 163.858 627.683 165.727 626.763 167.367C625.863 168.987 624.603 170.268 622.983 171.208C621.383 172.128 619.543 172.588 617.463 172.588C615.343 172.588 613.463 172.128 611.823 171.208C610.203 170.268 608.933 168.987 608.013 167.367C607.093 165.727 606.633 163.858 606.633 161.758C606.633 159.618 607.093 157.737 608.013 156.117C608.933 154.477 610.193 153.197 611.793 152.277C613.413 151.357 615.273 150.897 617.373 150.897ZM617.373 154.647C616.113 154.647 614.983 154.957 613.983 155.577C613.003 156.177 612.233 157.007 611.673 158.067C611.113 159.127 610.833 160.358 610.833 161.758C610.833 163.138 611.113 164.358 611.673 165.418C612.233 166.478 613.013 167.318 614.013 167.938C615.013 168.537 616.163 168.838 617.463 168.838C618.743 168.838 619.863 168.538 620.823 167.938C621.803 167.318 622.563 166.478 623.103 165.418C623.663 164.358 623.943 163.138 623.943 161.758C623.943 160.358 623.663 159.127 623.103 158.067C622.543 157.008 621.773 156.177 620.793 155.577C619.813 154.957 618.673 154.647 617.373 154.647Z" fill="#232323"/>
<path d="M664.43 150.867C665.71 150.867 666.89 151.058 667.97 151.438C669.05 151.817 669.999 152.347 670.819 153.027C671.659 153.687 672.359 154.448 672.919 155.308L669.56 157.407C669.22 156.867 668.769 156.388 668.209 155.968C667.669 155.548 667.069 155.218 666.409 154.978C665.749 154.738 665.09 154.617 664.43 154.617C663.11 154.617 661.939 154.928 660.919 155.548C659.899 156.148 659.099 156.977 658.52 158.037C657.94 159.097 657.649 160.328 657.649 161.728C657.649 163.108 657.929 164.338 658.489 165.418C659.069 166.498 659.879 167.348 660.919 167.968C661.959 168.568 663.16 168.867 664.52 168.867C665.539 168.867 666.449 168.678 667.249 168.298C668.049 167.898 668.689 167.347 669.169 166.647C669.649 165.947 669.919 165.127 669.979 164.188H665.119V160.978H673.939V163.527C673.899 165.447 673.469 167.087 672.649 168.447C671.829 169.787 670.709 170.817 669.289 171.537C667.869 172.237 666.25 172.588 664.43 172.588C662.29 172.588 660.389 172.128 658.729 171.208C657.089 170.268 655.799 168.987 654.859 167.367C653.919 165.727 653.449 163.847 653.449 161.728C653.449 159.608 653.919 157.737 654.859 156.117C655.799 154.477 657.09 153.197 658.729 152.277C660.389 151.337 662.29 150.867 664.43 150.867Z" fill="#232323"/>
<path d="M552.817 165.928L556.867 151.228H560.947L565.027 165.718L569.287 151.228H573.457L567.188 172.228H562.867L558.907 157.647L554.888 172.228H550.598L544.388 151.228H548.558L552.817 165.928Z" fill="#232323"/>
<path d="M580.098 172.228H575.988V151.228H580.098V172.228Z" fill="#232323"/>
<path d="M599.21 165.327V151.228H603.29V172.228H599.21L588.77 157.857V172.228H584.66V151.228H588.95L599.21 165.327Z" fill="#232323"/>
<path d="M646.026 165.327V151.228H650.106V172.228H646.026L635.586 157.857V172.228H631.477V151.228H635.767L646.026 165.327Z" fill="#232323"/>
<path d="M158.688 139.641C158.688 140.301 158.82 140.88 159.084 141.379C159.363 141.863 159.744 142.237 160.228 142.501C160.726 142.765 161.306 142.896 161.966 142.896C162.626 142.896 163.198 142.765 163.682 142.501C164.18 142.237 164.561 141.863 164.825 141.379C165.104 140.88 165.244 140.301 165.244 139.641V129.982H168.258V139.641C168.258 140.873 167.994 141.943 167.466 142.853C166.953 143.747 166.219 144.444 165.266 144.942C164.327 145.441 163.212 145.69 161.922 145.69C160.646 145.69 159.538 145.441 158.6 144.942C157.661 144.444 156.935 143.747 156.422 142.853C155.923 141.943 155.674 140.873 155.674 139.641V129.982H158.688V139.641Z" fill="#232323"/>
<path d="M195.176 129.719C196.232 129.719 197.215 129.91 198.124 130.291C199.033 130.658 199.825 131.178 200.5 131.853C201.189 132.513 201.717 133.275 202.084 134.141L199.289 135.175C199.04 134.632 198.71 134.163 198.3 133.767C197.889 133.356 197.42 133.041 196.892 132.821C196.364 132.587 195.792 132.469 195.176 132.469C194.281 132.469 193.481 132.696 192.777 133.15C192.088 133.59 191.545 134.199 191.149 134.977C190.768 135.754 190.577 136.656 190.577 137.683C190.577 138.709 190.776 139.619 191.172 140.411C191.568 141.188 192.117 141.804 192.821 142.259C193.525 142.699 194.332 142.919 195.241 142.919C195.872 142.919 196.445 142.801 196.958 142.566C197.486 142.317 197.948 141.98 198.344 141.555C198.754 141.129 199.085 140.638 199.334 140.081L202.128 141.093C201.761 141.987 201.233 142.779 200.544 143.469C199.869 144.158 199.077 144.694 198.168 145.075C197.259 145.457 196.268 145.646 195.197 145.646C193.701 145.646 192.374 145.309 191.216 144.635C190.057 143.945 189.147 143.006 188.487 141.818C187.827 140.616 187.497 139.237 187.497 137.683C187.497 136.128 187.827 134.756 188.487 133.568C189.147 132.366 190.05 131.428 191.193 130.753C192.352 130.064 193.68 129.719 195.176 129.719Z" fill="#232323"/>
<path fill-rule="evenodd" clip-rule="evenodd" d="M120.75 129.982C121.835 129.982 122.797 130.203 123.633 130.643C124.469 131.068 125.122 131.67 125.591 132.447C126.06 133.21 126.294 134.097 126.294 135.108C126.294 136.106 126.067 136.993 125.612 137.771C125.158 138.548 124.534 139.164 123.742 139.619C122.95 140.059 122.033 140.279 120.992 140.279H118.044V145.383H115.03V129.982H120.75ZM118.044 137.507H120.927C121.601 137.507 122.151 137.287 122.576 136.847C123.016 136.392 123.236 135.812 123.236 135.108C123.236 134.405 122.995 133.832 122.511 133.393C122.041 132.953 121.432 132.732 120.685 132.732H118.044V137.507Z" fill="#232323"/>
<path d="M138.032 132.732H131.3V136.23H137.108V138.915H131.3V142.633H138.12V145.383H128.286V129.982H138.032V132.732Z" fill="#232323"/>
<path d="M144.211 136.055L149.909 129.982H153.804L147.291 136.935L154.045 145.383H150.327L145.333 139.047L144.211 140.234V145.383H141.241V129.982H144.211V136.055Z" fill="#232323"/>
<path d="M182.054 140.323V129.982H185.046V145.383H182.054L174.397 134.845V145.383H171.384V129.982H174.53L182.054 140.323Z" fill="#232323"/>
<path d="M214.087 132.732H207.354V136.23H213.163V138.915H207.354V142.633H214.175V145.383H204.341V129.982H214.087V132.732Z" fill="#232323"/>
<path d="M227.966 140.323V129.982H230.958V145.383H227.966L220.31 134.845V145.383H217.296V129.982H220.442L227.966 140.323Z" fill="#232323"/>
<path d="M296.032 56.6836C296.032 57.5836 296.212 58.3737 296.572 59.0537C296.952 59.7137 297.473 60.224 298.133 60.584C298.813 60.9438 299.602 61.124 300.502 61.124C301.402 61.124 302.183 60.944 302.843 60.584C303.523 60.224 304.042 59.7136 304.402 59.0537C304.782 58.3737 304.973 57.5836 304.973 56.6836V43.5137H309.082V56.6836C309.082 58.3636 308.722 59.8235 308.002 61.0635C307.302 62.2835 306.302 63.2341 305.002 63.9141C303.722 64.5939 302.202 64.9336 300.442 64.9336C298.702 64.9336 297.192 64.5941 295.912 63.9141C294.632 63.2341 293.642 62.2835 292.942 61.0635C292.262 59.8235 291.923 58.3635 291.923 56.6836V43.5137H296.032V56.6836Z" fill="#232323"/>
<path d="M339.45 56.6836C339.45 57.5836 339.63 58.3737 339.99 59.0537C340.37 59.7137 340.891 60.224 341.551 60.584C342.231 60.9438 343.02 61.124 343.92 61.124C344.82 61.124 345.601 60.944 346.261 60.584C346.941 60.224 347.46 59.7136 347.82 59.0537C348.2 58.3737 348.391 57.5836 348.391 56.6836V43.5137H352.5V56.6836C352.5 58.3636 352.14 59.8235 351.42 61.0635C350.72 62.2835 349.72 63.2341 348.42 63.9141C347.14 64.5939 345.62 64.9336 343.86 64.9336C342.12 64.9336 340.61 64.5941 339.33 63.9141C338.05 63.2341 337.06 62.2835 336.36 61.0635C335.68 59.8235 335.341 58.3635 335.341 56.6836V43.5137H339.45V56.6836Z" fill="#232323"/>
<path d="M323.096 43.1533C324.376 43.1533 325.556 43.3437 326.636 43.7236C327.716 44.1036 328.665 44.6336 329.485 45.3135C330.325 45.9734 331.025 46.7338 331.585 47.5938L328.226 49.6934C327.886 49.1534 327.435 48.6739 326.875 48.2539C326.335 47.834 325.735 47.5036 325.075 47.2637C324.415 47.0238 323.756 46.9034 323.096 46.9033C321.776 46.9033 320.605 47.214 319.585 47.834C318.565 48.4339 317.765 49.2636 317.186 50.3232C316.606 51.3832 316.315 52.6137 316.315 54.0137C316.315 55.3937 316.595 56.6241 317.155 57.7041C317.735 58.7839 318.545 59.634 319.585 60.2539C320.625 60.8539 321.826 61.1533 323.186 61.1533C324.205 61.1533 325.115 60.9638 325.915 60.584C326.715 60.184 327.355 59.6335 327.835 58.9336C328.315 58.2336 328.586 57.4136 328.646 56.4736H323.785V53.2637H332.605V55.8135C332.565 57.7334 332.135 59.3734 331.315 60.7334C330.495 62.0734 329.375 63.1032 327.955 63.8232C326.535 64.5232 324.916 64.874 323.096 64.874C320.956 64.874 319.055 64.414 317.396 63.4941C315.756 62.5541 314.465 61.2733 313.525 59.6533C312.585 58.0134 312.115 56.1336 312.115 54.0137C312.115 51.8937 312.585 50.0233 313.525 48.4033C314.465 46.7634 315.756 45.4834 317.396 44.5635C319.055 43.6235 320.956 43.1533 323.096 43.1533Z" fill="#232323"/>
<path fill-rule="evenodd" clip-rule="evenodd" d="M281.946 43.5137C283.426 43.5137 284.736 43.8141 285.876 44.4141C287.016 44.9941 287.906 45.814 288.546 46.874C289.186 47.914 289.506 49.124 289.506 50.5039C289.506 51.8638 289.196 53.0738 288.576 54.1338C287.956 55.1937 287.106 56.0334 286.026 56.6533C284.946 57.2533 283.696 57.5537 282.276 57.5537H278.256V64.5137H274.146V43.5137H281.946ZM278.256 53.7734H282.187C283.106 53.7734 283.857 53.4739 284.437 52.874C285.036 52.2541 285.336 51.4638 285.336 50.5039C285.336 49.5441 285.006 48.764 284.347 48.1641C283.707 47.5641 282.876 47.2637 281.856 47.2637H278.256V53.7734Z" fill="#232323"/>
<path d="M360.873 51.8838H370.594V43.5137H374.703V64.5137H370.594V55.6641H360.873V64.5137H356.764V43.4834H360.873V51.8838Z" fill="#232323"/>
</svg>
